<svg width="256" height="84" viewBox="0 0 256 84" fill="none" xmlns="http://www.w3.org/2000/svg">
<path d="M85.984 60.4599V24.1098H79.3064V60.4599H85.984ZM101.668 70.2001L117.182 35.7579H110.053L103.978 50.2176L97.4007 35.7579H89.9198L100.413 57.347L94.589 70.2001H101.668ZM130.148 28.3774H124.123V31.8417C124.123 34.0508 122.918 35.7579 120.307 35.7579H119.052V41.6823H123.521V53.1798C123.521 57.9495 126.533 60.8113 131.353 60.8113C133.311 60.8113 134.516 60.4599 135.118 60.2088V54.686C134.767 54.7864 133.863 54.8869 133.06 54.8869C131.152 54.8869 130.148 54.184 130.148 52.025V41.6823H135.118V35.7579H130.148V28.3774ZM145.416 45.2973C145.566 43.0379 147.474 40.4272 150.938 40.4272C154.754 40.4272 156.361 42.8371 156.461 45.2973H145.416ZM157.114 51.7238C156.311 53.9329 154.604 55.4893 151.491 55.4893C148.177 55.4893 145.416 53.1296 145.265 49.8661H162.938C162.938 49.7657 163.038 48.7616 163.038 47.8076C163.038 39.8749 158.47 35.0048 150.838 35.0048C144.512 35.0048 138.688 40.1259 138.688 48.0085C138.688 56.3429 144.663 61.213 151.441 61.213C157.516 61.213 161.432 57.6483 162.687 53.3806L157.114 51.7238ZM174.774 60.4599V57.4474C176.079 59.5561 178.69 61.0624 182.104 61.0624C189.133 61.0624 193.752 55.4893 193.752 48.0085C193.752 40.6782 189.585 35.1052 182.355 35.1052C178.69 35.1052 175.979 36.7118 174.874 38.4691V24.1098H168.297V60.4599H174.774ZM187.074 48.0587C187.074 52.5773 184.363 55.0877 180.949 55.0877C177.585 55.0877 174.774 52.5271 174.774 48.0587C174.774 43.54 177.585 41.0799 180.949 41.0799C184.363 41.0799 187.074 43.54 187.074 48.0587ZM210.135 55.1379C206.871 55.1379 203.859 52.7279 203.859 48.1089C203.859 43.4396 206.871 41.0799 210.135 41.0799C213.398 41.0799 216.411 43.4396 216.411 48.1089C216.411 52.7782 213.398 55.1379 210.135 55.1379ZM210.135 35.0048C202.754 35.0048 197.181 40.4774 197.181 48.1089C197.181 55.6902 202.754 61.213 210.135 61.213C217.515 61.213 223.088 55.6902 223.088 48.1089C223.088 40.4774 217.515 35.0048 210.135 35.0048ZM224.465 60.4599H231.997C232.85 59.1043 236.164 54.2342 237.068 52.8786L242.239 60.4599H250.071L241.134 47.8578L249.77 35.7579H242.189L237.319 43.0881C236.465 41.7325 233.252 37.1135 232.398 35.7579H224.465L233.252 48.0587L224.465 60.4599Z" fill="white"/>
<path d="M46.1055 16.7358C46.1055 24.2456 40.0176 30.3336 32.5077 30.3336C24.9979 30.3336 18.9099 24.2456 18.9099 16.7358C18.9099 9.2259 24.9979 3.13796 32.5077 3.13796C40.0176 3.13796 46.1055 9.2259 46.1055 16.7358Z" stroke="white" stroke-width="6.27591"/>
<path d="M32.5083 21.088L32.8843 19.745C32.6376 19.6759 32.3767 19.6761 32.1302 19.7456L32.5083 21.088ZM32.5554 21.1012L32.9314 19.7582L32.9314 19.7582L32.5554 21.1012ZM32.4611 21.1013L32.8392 22.4437L32.8392 22.4437L32.4611 21.1013ZM2.12756 29.6435L2.50561 30.9859H2.50561L2.12756 29.6435ZM2.00049 29.6792L1.62245 28.3368C1.02119 28.5061 0.605841 29.0546 0.605841 29.6792H2.00049ZM2.00049 70.902H0.605841C0.605841 71.4917 0.976822 72.0178 1.53238 72.2157L2.00049 70.902ZM2.1163 70.9432L2.58442 69.6295H2.58441L2.1163 70.9432ZM32.4499 81.7518L32.918 80.438L32.918 80.438L32.4499 81.7518ZM32.5082 81.7725L32.0401 83.0863C32.342 83.1939 32.6718 83.1942 32.9739 83.0871L32.5082 81.7725ZM32.5666 81.7519L33.0323 83.0665L33.0323 83.0664L32.5666 81.7519ZM63.0745 70.9433L62.6088 69.6287L62.6088 69.6288L63.0745 70.9433ZM63.1906 70.9022L63.6563 72.2168C64.2131 72.0196 64.5853 71.4929 64.5853 70.9022H63.1906ZM63.1906 29.679H64.5853C64.5853 29.0536 64.1689 28.5047 63.5667 28.336L63.1906 29.679ZM63.0633 29.6434L62.6873 30.9864L62.6873 30.9864L63.0633 29.6434ZM32.5085 21.4501L32.8846 20.1071C32.6379 20.0381 32.377 20.0383 32.1305 20.1077L32.5085 21.4501ZM2.78373 29.8209L2.40569 28.4785C1.8123 28.6456 1.39901 29.1824 1.38925 29.7988C1.3795 30.4152 1.77558 30.9649 2.36339 31.1507L2.78373 29.8209ZM62.4042 29.8209L62.8223 31.1514C63.4112 30.9663 63.8084 30.4161 63.7987 29.7989C63.7889 29.1817 63.3746 28.6444 62.7802 28.4779L62.4042 29.8209ZM32.5085 39.2167L32.0882 40.5465C32.361 40.6327 32.6537 40.633 32.9267 40.5472L32.5085 39.2167ZM62.842 30.0488H64.2366C64.2366 29.6047 64.0251 29.1872 63.6672 28.9245C63.3092 28.6617 62.8474 28.5852 62.4238 28.7183L62.842 30.0488ZM32.6821 39.5276L32.2639 38.1971C31.6828 38.3798 31.2874 38.9185 31.2874 39.5276H32.6821ZM62.842 70.6558L63.3077 71.9704C63.8645 71.7732 64.2366 71.2465 64.2366 70.6558H62.842ZM32.6821 81.3411H31.2874C31.2874 81.794 31.5073 82.2187 31.8772 82.48C32.2471 82.7414 32.7209 82.8069 33.1478 82.6556L32.6821 81.3411ZM32.3334 39.527H33.728C33.728 38.9187 33.3338 38.3805 32.7537 38.1972L32.3334 39.527ZM2.34915 30.0492L2.76949 28.7194C2.34569 28.5855 1.88342 28.6615 1.52489 28.9242C1.16636 29.1869 0.954503 29.6047 0.954503 30.0492H2.34915ZM2.34915 70.6561H0.954503C0.954503 71.2458 1.32548 71.7719 1.88104 71.9698L2.34915 70.6561ZM32.3334 81.3401L31.8653 82.6539C32.2923 82.806 32.7667 82.7411 33.1372 82.4798C33.5077 82.2185 33.728 81.7935 33.728 81.3401H32.3334ZM32.1322 22.431L32.1794 22.4442L32.9314 19.7582L32.8843 19.745L32.1322 22.431ZM32.8392 22.4437L32.8863 22.4304L32.1302 19.7456L32.0831 19.7588L32.8392 22.4437ZM2.50561 30.9859L32.8392 22.4437L32.0831 19.7588L1.74952 28.301L2.50561 30.9859ZM2.37853 31.0217L2.50561 30.9859L1.74952 28.301L1.62245 28.3368L2.37853 31.0217ZM3.39514 29.8113V29.6792H0.605841V29.8113H3.39514ZM3.39514 70.779V29.8113H0.605841V70.779H3.39514ZM3.39514 70.902V70.779H0.605841V70.902H3.39514ZM2.58441 69.6295L2.4686 69.5882L1.53238 72.2157L1.6482 72.257L2.58441 69.6295ZM32.918 80.438L2.58442 69.6295L1.64819 72.257L31.9818 83.0655L32.918 80.438ZM32.9763 80.4588L32.918 80.438L31.9818 83.0655L32.0401 83.0863L32.9763 80.4588ZM32.1009 80.4373L32.0425 80.4579L32.9739 83.0871L33.0323 83.0665L32.1009 80.4373ZM62.6088 69.6288L32.1009 80.4373L33.0323 83.0664L63.5402 72.2579L62.6088 69.6288ZM62.7249 69.5876L62.6088 69.6287L63.5402 72.2579L63.6563 72.2168L62.7249 69.5876ZM61.796 70.779V70.9022H64.5853V70.779H61.796ZM61.796 29.8113V70.779H64.5853V29.8113H61.796ZM61.796 29.679V29.8113H64.5853V29.679H61.796ZM62.6873 30.9864L62.8146 31.022L63.5667 28.336L63.4393 28.3004L62.6873 30.9864ZM32.1794 22.4442L62.6873 30.9864L63.4393 28.3004L32.9314 19.7582L32.1794 22.4442ZM32.1305 20.1077L2.40569 28.4785L3.16177 31.1633L32.8866 22.7926L32.1305 20.1077ZM62.7802 28.4779L32.8846 20.1071L32.1325 22.7931L62.0281 31.1639L62.7802 28.4779ZM32.9267 40.5472L62.8223 31.1514L61.986 28.4904L32.0904 37.8862L32.9267 40.5472ZM2.36339 31.1507L32.0882 40.5465L32.9289 37.8869L3.20406 28.4911L2.36339 31.1507ZM62.4238 28.7183L32.2639 38.1971L33.1002 40.8581L63.2601 31.3793L62.4238 28.7183ZM64.2366 70.6558V30.0488H61.4473V70.6558H64.2366ZM33.1478 82.6556L63.3077 71.9704L62.3762 69.3413L32.2163 80.0265L33.1478 82.6556ZM31.2874 39.5276V81.3411H34.0767V39.5276H31.2874ZM32.7537 38.1972L2.76949 28.7194L1.92881 31.379L31.9131 40.8568L32.7537 38.1972ZM0.954503 30.0492V70.6561H3.7438V30.0492H0.954503ZM1.88104 71.9698L31.8653 82.6539L32.8015 80.0264L2.81726 69.3423L1.88104 71.9698ZM33.728 81.3401V39.527H30.9387V81.3401H33.728Z" fill="white"/>
</svg>
