<svg width="34" height="44" viewBox="0 0 34 44" fill="none" xmlns="http://www.w3.org/2000/svg">
<path d="M23.9004 8.68941C23.9004 12.5886 20.7395 15.7495 16.8403 15.7495C12.9411 15.7495 9.78014 12.5886 9.78014 8.68941C9.78014 4.7902 12.9411 1.62926 16.8403 1.62926C20.7395 1.62926 23.9004 4.7902 23.9004 8.68941Z" stroke="white" stroke-width="3.25853"/>
<path d="M16.84 11.4919L16.9756 11.0075C16.8867 10.9826 16.7926 10.9827 16.7037 11.0077L16.84 11.4919ZM16.8645 11.4987L16.7289 11.983L16.7289 11.983L16.8645 11.4987ZM16.8155 11.4987L16.6792 11.0146L16.6792 11.0146L16.8155 11.4987ZM1.06598 15.934L0.929642 15.4498H0.929642L1.06598 15.934ZM1 15.9525L0.863663 15.4684C0.646824 15.5295 0.497035 15.7273 0.497035 15.9525H1ZM1 37.3559H0.497035C0.497035 37.5686 0.630823 37.7583 0.831177 37.8297L1 37.3559ZM1.06013 37.3773L0.891311 37.8511H0.891313L1.06013 37.3773ZM16.8097 42.9892L16.9785 42.5154L16.9785 42.5154L16.8097 42.9892ZM16.84 43L16.6711 43.4738C16.78 43.5126 16.899 43.5127 17.0079 43.4741L16.84 43ZM16.8703 42.9893L16.7023 42.5152L16.7023 42.5152L16.8703 42.9893ZM32.7104 37.3773L32.5424 36.9033L32.5424 36.9033L32.7104 37.3773ZM32.7706 37.356L32.9386 37.8301C33.1394 37.7589 33.2736 37.569 33.2736 37.356H32.7706ZM32.7706 15.9524H33.2736C33.2736 15.7269 33.1235 15.5289 32.9063 15.4681L32.7706 15.9524ZM32.7045 15.9339L32.8401 15.4496L32.8401 15.4496L32.7045 15.9339ZM16.8401 11.6799L16.9757 11.1955C16.8868 11.1706 16.7927 11.1707 16.7038 11.1957L16.8401 11.6799ZM1.40667 16.0261L1.27033 15.542C1.05633 15.6022 0.907282 15.7958 0.903764 16.0181C0.900245 16.2404 1.04309 16.4387 1.25508 16.5057L1.40667 16.0261ZM32.3623 16.0261L32.5131 16.5059C32.7255 16.4392 32.8687 16.2408 32.8652 16.0182C32.8617 15.7956 32.7123 15.6018 32.4979 15.5418L32.3623 16.0261ZM16.8401 20.9045L16.6885 21.3841C16.7869 21.4152 16.8925 21.4153 16.9909 21.3843L16.8401 20.9045ZM32.5896 16.1444H33.0926C33.0926 15.9843 33.0163 15.8337 32.8872 15.7389C32.7581 15.6442 32.5916 15.6166 32.4388 15.6646L32.5896 16.1444ZM16.9306 21.0658L16.7798 20.586C16.5703 20.6518 16.4277 20.8461 16.4277 21.0658H16.9306ZM32.5896 37.2281L32.7576 37.7022C32.9584 37.631 33.0926 37.4411 33.0926 37.2281H32.5896ZM16.9306 42.7758H16.4277C16.4277 42.9392 16.507 43.0923 16.6404 43.1866C16.7738 43.2808 16.9446 43.3045 17.0986 43.2499L16.9306 42.7758ZM16.7496 21.0657H17.2526C17.2526 20.8463 17.1104 20.6523 16.9012 20.5862L16.7496 21.0657ZM1.18103 16.1446L1.33262 15.665C1.17978 15.6167 1.01307 15.6442 0.883767 15.7389C0.754466 15.8336 0.678064 15.9843 0.678064 16.1446H1.18103ZM1.18103 37.2282H0.678064C0.678064 37.4409 0.811853 37.6306 1.01221 37.702L1.18103 37.2282ZM16.7496 42.7756L16.5808 43.2494C16.7348 43.3043 16.9059 43.2809 17.0395 43.1866C17.1731 43.0924 17.2526 42.9391 17.2526 42.7756H16.7496ZM16.7044 11.9762L16.7289 11.983L17.0001 11.0144L16.9756 11.0075L16.7044 11.9762ZM16.9519 11.9829L16.9763 11.976L16.7037 11.0077L16.6792 11.0146L16.9519 11.9829ZM1.20232 16.4181L16.9519 11.9829L16.6792 11.0146L0.929642 15.4498L1.20232 16.4181ZM1.13634 16.4367L1.20232 16.4181L0.929642 15.4498L0.863663 15.4684L1.13634 16.4367ZM1.50297 16.0211V15.9525H0.497035V16.0211H1.50297ZM1.50297 37.292V16.0211H0.497035V37.292H1.50297ZM1.50297 37.3559V37.292H0.497035V37.3559H1.50297ZM1.22896 36.9035L1.16882 36.8821L0.831177 37.8297L0.891311 37.8511L1.22896 36.9035ZM16.9785 42.5154L1.22895 36.9035L0.891313 37.8511L16.6409 43.463L16.9785 42.5154ZM17.0088 42.5262L16.9785 42.5154L16.6408 43.463L16.6711 43.4738L17.0088 42.5262ZM16.7023 42.5152L16.672 42.5259L17.0079 43.4741L17.0383 43.4633L16.7023 42.5152ZM32.5424 36.9033L16.7023 42.5152L17.0383 43.4634L32.8783 37.8514L32.5424 36.9033ZM32.6027 36.8819L32.5424 36.9033L32.8783 37.8514L32.9386 37.8301L32.6027 36.8819ZM32.2677 37.292V37.356H33.2736V37.292H32.2677ZM32.2677 16.0211V37.292H33.2736V16.0211H32.2677ZM32.2677 15.9524V16.0211H33.2736V15.9524H32.2677ZM32.5689 16.4183L32.635 16.4368L32.9063 15.4681L32.8401 15.4496L32.5689 16.4183ZM16.7289 11.983L32.5689 16.4183L32.8401 15.4496L17.0001 11.0144L16.7289 11.983ZM16.7038 11.1957L1.27033 15.542L1.543 16.5102L16.9765 12.164L16.7038 11.1957ZM32.4979 15.5418L16.9757 11.1955L16.7045 12.1642L32.2267 16.5104L32.4979 15.5418ZM16.9909 21.3843L32.5131 16.5059L32.2115 15.5463L16.6893 20.4247L16.9909 21.3843ZM1.25508 16.5057L16.6885 21.3841L16.9917 20.4249L1.55826 15.5465L1.25508 16.5057ZM32.4388 15.6646L16.7798 20.586L17.0814 21.5456L32.7404 16.6242L32.4388 15.6646ZM33.0926 37.2281V16.1444H32.0866V37.2281H33.0926ZM17.0986 43.2499L32.7576 37.7022L32.4216 36.754L16.7627 42.3017L17.0986 43.2499ZM16.4277 21.0658V42.7758H17.4336V21.0658H16.4277ZM16.9012 20.5862L1.33262 15.665L1.02944 16.6242L16.598 21.5453L16.9012 20.5862ZM0.678064 16.1446V37.2282H1.68399V16.1446H0.678064ZM1.01221 37.702L16.5808 43.2494L16.9184 42.3018L1.34985 36.7544L1.01221 37.702ZM17.2526 42.7756V21.0657H16.2466V42.7756H17.2526Z" fill="white"/>
</svg>
